<svg width="152" height="153" viewBox="0 0 152 153" fill="none" xmlns="http://www.w3.org/2000/svg">
<g opacity="0.5" filter="url(#filter0_d_2_16)">
<path d="M95.448 8.94427C97.2906 5.25902 102.55 5.25903 104.392 8.94427L146.302 92.7639C147.964 96.0884 145.547 100 141.83 100H58.0103C54.2934 100 51.8759 96.0884 53.5382 92.7639L95.448 8.94427Z" fill="#085B4C"/>
<path d="M95.8948 9.16797C97.5531 5.85125 102.287 5.85125 103.946 9.16797L145.855 92.9873C147.351 95.9793 145.175 99.4998 141.83 99.5H58.01C54.665 99.4998 52.4896 95.9793 53.9856 92.9873L95.8948 9.16797Z" stroke="#009E82" stroke-opacity="0.5"/>
</g>
<g opacity="0.75" filter="url(#filter1_d_2_16)">
<path d="M80.448 23.9443C82.2906 20.259 87.5497 20.259 89.3923 23.9443L131.302 107.764C132.964 111.088 130.547 115 126.83 115H43.0103C39.2934 115 36.8759 111.088 38.5382 107.764L80.448 23.9443Z" fill="#085B4C"/>
<path d="M80.8948 24.168C82.5531 20.8513 87.2872 20.8512 88.9455 24.168L130.855 107.987C132.351 110.979 130.175 114.5 126.83 114.5H43.01C39.665 114.5 37.4896 110.979 38.9856 107.987L80.8948 24.168Z" stroke="#00B494" stroke-opacity="0.75"/>
</g>
<g filter="url(#filter2_d_2_16)">
<path d="M65.448 38.9443C67.2906 35.259 72.5497 35.259 74.3923 38.9443L116.302 122.764C117.964 126.088 115.547 130 111.83 130H28.0103C24.2934 130 21.8759 126.088 23.5382 122.764L65.448 38.9443Z" fill="#085B4C"/>
<path d="M64.1067 38.2734C66.5021 33.4828 73.3382 33.4828 75.7336 38.2734L117.644 122.093C119.805 126.415 116.662 131.5 111.83 131.5H28.01C23.1782 131.5 20.0356 126.415 22.1965 122.093L64.1067 38.2734Z" stroke="#193F33" stroke-width="3"/>
</g>
<defs>
<filter id="filter0_d_2_16" x="49.0039" y="6.18034" width="101.833" height="101.82" filterUnits="userSpaceOnUse" color-interpolation-filters="sRGB">
<feFlood flood-opacity="0" result="BackgroundImageFix"/>
<feColorMatrix in="SourceAlpha" type="matrix" values="0 0 0 0 0 0 0 0 0 0 0 0 0 0 0 0 0 0 127 0" result="hardAlpha"/>
<feOffset dy="4"/>
<feGaussianBlur stdDeviation="2"/>
<feComposite in2="hardAlpha" operator="out"/>
<feColorMatrix type="matrix" values="0 0 0 0 0 0 0 0 0 0 0 0 0 0 0 0 0 0 0.25 0"/>
<feBlend mode="normal" in2="BackgroundImageFix" result="effect1_dropShadow_2_16"/>
<feBlend mode="normal" in="SourceGraphic" in2="effect1_dropShadow_2_16" result="shape"/>
</filter>
<filter id="filter1_d_2_16" x="18.0039" y="1.18034" width="133.833" height="133.82" filterUnits="userSpaceOnUse" color-interpolation-filters="sRGB">
<feFlood flood-opacity="0" result="BackgroundImageFix"/>
<feColorMatrix in="SourceAlpha" type="matrix" values="0 0 0 0 0 0 0 0 0 0 0 0 0 0 0 0 0 0 127 0" result="hardAlpha"/>
<feOffset/>
<feGaussianBlur stdDeviation="10"/>
<feComposite in2="hardAlpha" operator="out"/>
<feColorMatrix type="matrix" values="0 0 0 0 0 0 0 0 0 0 0 0 0 0 0 0 0 0 0.25 0"/>
<feBlend mode="normal" in2="BackgroundImageFix" result="effect1_dropShadow_2_16"/>
<feBlend mode="normal" in="SourceGraphic" in2="effect1_dropShadow_2_16" result="shape"/>
</filter>
<filter id="filter2_d_2_16" x="-8.12113e-07" y="13.1803" width="139.84" height="139.82" filterUnits="userSpaceOnUse" color-interpolation-filters="sRGB">
<feFlood flood-opacity="0" result="BackgroundImageFix"/>
<feColorMatrix in="SourceAlpha" type="matrix" values="0 0 0 0 0 0 0 0 0 0 0 0 0 0 0 0 0 0 127 0" result="hardAlpha"/>
<feOffset/>
<feGaussianBlur stdDeviation="10"/>
<feComposite in2="hardAlpha" operator="out"/>
<feColorMatrix type="matrix" values="0 0 0 0 0 0 0 0 0 0.705882 0 0 0 0 0.580392 0 0 0 0.25 0"/>
<feBlend mode="normal" in2="BackgroundImageFix" result="effect1_dropShadow_2_16"/>
<feBlend mode="normal" in="SourceGraphic" in2="effect1_dropShadow_2_16" result="shape"/>
</filter>
</defs>
</svg>
